<svg viewBox="0 0 512 512" xmlns="http://www.w3.org/2000/svg"><path d="M179.555 51.847a8 8 0 0 0-14.305 4.926v377.82a28.529 28.529 0 0 0 8 19.822v.812h.812a28.528 28.528 0 0 0 19.823 8h6.981a28.527 28.527 0 0 0 19.822-8h.813v-.812a28.528 28.528 0 0 0 8-19.823V191.347c0-37.37-3.617-80.2-30.436-114.528ZM213.5 333.486h-32.25V311.7h32.25Zm0-37.786h-32.25V80.007l5.206 6.664c23.768 30.42 27.044 68.287 27.044 104.676ZM338.75 57.512a8 8 0 0 0-8 8v66.777a17.77 17.77 0 0 1-17.751 17.75h-18.228a17.77 17.77 0 0 1-17.751-17.75V65.512a8 8 0 1 0-16 0v66.777a33.79 33.79 0 0 0 33.751 33.75h1.114v59.637L287.04 238.2a82.981 82.981 0 0 0-15.28 48.12v148.272a28.528 28.528 0 0 0 8 19.823v.812h.812a28.528 28.528 0 0 0 19.822 8h6.982a28.528 28.528 0 0 0 19.822-8h.812v-.812a28.528 28.528 0 0 0 8-19.823V286.32a82.981 82.981 0 0 0-15.28-48.12l-8.845-12.524V166.04h1.114a33.79 33.79 0 0 0 33.75-33.751V65.512a8 8 0 0 0-7.999-8Zm-50.99 275.974V311.7h32.25v21.786Zm32.25-37.786h-32.25v-9.38a67.06 67.06 0 0 1 12.35-38.89l3.775-5.347 3.776 5.347a67.062 67.062 0 0 1 12.349 38.89Z" fill="#e0b15e" class="fill-000000"></path><path d="M314.92 119.776a8 8 0 0 0 8-8V65.512a8 8 0 1 0-16 0v46.264a8 8 0 0 0 8 8ZM292.85 119.776a8 8 0 0 0 8-8V65.512a8 8 0 1 0-16 0v46.264a8 8 0 0 0 8 8Z" fill="#e0b15e" class="fill-000000"></path></svg>