<svg xmlns="http://www.w3.org/2000/svg" xmlns:xlink="http://www.w3.org/1999/xlink" width="100" zoomAndPan="magnify" viewBox="0 0 75 74.999997" height="100" preserveAspectRatio="xMidYMid meet" version="1.0"><defs><clipPath id="406ef2b062"><path d="M 5.050781 0.992188 L 70 0.992188 L 70 73.742188 L 5.050781 73.742188 Z M 5.050781 0.992188 " clip-rule="nonzero"/></clipPath><clipPath id="06b2a50e8c"><path d="M 30.886719 18.816406 L 44.113281 18.816406 L 44.113281 32.042969 L 30.886719 32.042969 Z M 30.886719 18.816406 " clip-rule="nonzero"/></clipPath><clipPath id="11204bfe92"><path d="M 37.5 18.816406 C 33.847656 18.816406 30.886719 21.777344 30.886719 25.429688 C 30.886719 29.082031 33.847656 32.042969 37.5 32.042969 C 41.152344 32.042969 44.113281 29.082031 44.113281 25.429688 C 44.113281 21.777344 41.152344 18.816406 37.5 18.816406 Z M 37.5 18.816406 " clip-rule="nonzero"/></clipPath></defs><g clip-path="url(#406ef2b062)"><path fill="#e0b15e" d="M 63.070312 21.390625 C 61.867188 32.871094 59.089844 43.859375 52.695312 53.671875 C 49.015625 59.320312 44.285156 63.882812 38.425781 67.261719 C 37.71875 67.671875 37.242188 67.628906 36.566406 67.238281 C 29.203125 62.992188 23.773438 56.929688 19.828125 49.484375 C 16.140625 42.515625 13.945312 35.054688 12.710938 27.292969 C 12.386719 25.257812 12.144531 23.214844 11.90625 21.167969 C 11.820312 20.425781 12.082031 20.1875 12.652344 19.902344 C 19.113281 16.695312 25.5625 13.457031 32.011719 10.230469 C 33.625 9.425781 35.246094 8.636719 36.847656 7.804688 C 37.316406 7.558594 37.679688 7.542969 38.164062 7.785156 C 46.261719 11.851562 54.367188 15.917969 62.492188 19.933594 C 63.261719 20.3125 63.160156 20.785156 63.070312 21.390625 Z M 69.746094 18.476562 C 69.730469 17.320312 69.25 16.582031 68.222656 16.070312 C 58.460938 11.199219 48.710938 6.3125 38.957031 1.433594 C 38.664062 1.285156 38.371094 1.136719 38.078125 0.992188 C 37.699219 0.992188 37.320312 0.992188 36.9375 0.992188 C 28.113281 5.410156 19.285156 9.832031 10.457031 14.253906 C 9.167969 14.894531 7.878906 15.539062 6.589844 16.183594 C 5.78125 16.589844 5.304688 17.226562 5.289062 18.144531 C 5.125 29.140625 7.027344 39.734375 11.601562 49.773438 C 15.097656 57.445312 20.132812 63.910156 27.097656 68.78125 C 29.917969 70.757812 32.941406 72.363281 36.144531 73.636719 C 36.371094 73.730469 36.660156 73.730469 36.796875 74 C 37.222656 74 37.652344 74 38.078125 74 C 40.148438 73.105469 42.226562 72.230469 44.195312 71.125 C 52.21875 66.621094 58.125 60.117188 62.332031 51.996094 C 65.355469 46.148438 67.277344 39.941406 68.464844 33.484375 C 69.375 28.523438 69.824219 23.523438 69.746094 18.476562 " fill-opacity="1" fill-rule="nonzero"/></g><path fill="#e0b15e" d="M 51.296875 31.191406 C 46.59375 35.925781 41.875 40.644531 37.140625 45.34375 C 35.949219 46.523438 34.441406 46.507812 33.246094 45.332031 C 30.890625 43.011719 28.550781 40.675781 26.234375 38.316406 C 25.09375 37.15625 25.101562 35.550781 26.183594 34.484375 C 27.257812 33.421875 28.839844 33.4375 30.015625 34.582031 C 31.53125 36.054688 33.011719 37.5625 34.511719 39.058594 C 34.71875 39.261719 34.9375 39.460938 35.230469 39.738281 C 36.628906 38.332031 37.953125 37.003906 39.277344 35.679688 C 42.011719 32.941406 44.746094 30.195312 47.492188 27.46875 C 48.695312 26.277344 50.304688 26.253906 51.394531 27.359375 C 52.453125 28.433594 52.453125 30.023438 51.296875 31.191406 Z M 57.222656 23.128906 C 50.789062 19.847656 44.375 16.527344 37.960938 13.207031 C 37.578125 13.007812 37.289062 13.023438 36.921875 13.21875 C 35.652344 13.902344 34.367188 14.546875 33.09375 15.203125 C 27.984375 17.839844 22.878906 20.484375 17.765625 23.105469 C 17.3125 23.339844 17.109375 23.53125 17.175781 24.136719 C 17.363281 25.808594 17.554688 27.476562 17.8125 29.136719 C 18.789062 35.476562 20.523438 41.570312 23.449219 47.261719 C 26.570312 53.347656 30.871094 58.296875 36.695312 61.769531 C 37.230469 62.085938 37.609375 62.121094 38.171875 61.785156 C 42.808594 59.023438 46.554688 55.296875 49.46875 50.6875 C 54.53125 42.671875 56.726562 33.695312 57.679688 24.320312 C 57.75 23.824219 57.828125 23.4375 57.222656 23.128906 " fill-opacity="1" fill-rule="nonzero"/><g clip-path="url(#06b2a50e8c)"><g clip-path="url(#11204bfe92)"><path fill="#e0b15e" d="M 30.886719 18.816406 L 44.113281 18.816406 L 44.113281 32.042969 L 30.886719 32.042969 Z M 30.886719 18.816406 " fill-opacity="1" fill-rule="nonzero"/></g></g></svg>